<?xml version="1.0" encoding="iso-8859-1"?>
<svg version="1.1" id="Layer_1" xmlns="http://www.w3.org/2000/svg" xmlns:xlink="http://www.w3.org/1999/xlink" x="0px" y="0px"
	 viewBox="0 0 512 512" style="enable-background:new 0 0 512 512;" xml:space="preserve">
<path style="fill:#D80029;" d="M277.589,14.571c-29.52-17.043-56.268-18.627-75.581-7.403L159.53,31.854
	c0.062-0.036,0.125-0.068,0.188-0.104c-19.173,11.033-31.072,34.631-31.167,68.223c-0.191,67.404,100.218,299.862,105.503,312.096
	l42.478-24.686c5.336-6.102,106.726-122.05,106.917-189.456C383.641,130.523,336.241,48.434,277.589,14.571z"/>
<path style="fill:#A50020;" d="M234.995,80.052c36.949,21.333,66.805,73.045,66.684,115.511c-0.12,42.457-30.171,59.582-67.12,38.25
	c-36.957-21.337-66.813-73.049-66.692-115.506C167.987,75.84,198.038,58.714,234.995,80.052z"/>
<path style="fill:#C60024;" d="M276.824,209.201c-36.957-21.337-66.813-73.049-66.693-115.506c0.024-8.34,1.217-15.687,3.375-21.973
	c-26.444-4.967-45.544,12.754-45.639,46.584c-0.12,42.457,29.736,94.169,66.692,115.506c29.693,17.144,54.917,9.433,63.746-16.284
	C291.556,216.26,284.337,213.539,276.824,209.201z"/>
<path style="fill:#8FCC05;" d="M387.635,412.174h-0.026c0.001-4.248-0.579-8.496-1.792-12.693c0,0-0.033-0.034-0.033-0.067
	c-0.874-2.988-2.049-5.977-3.56-8.933c-0.033-0.068-0.067-0.101-0.101-0.167c-6.01-11.721-16.992-22.735-32.944-31.937
	c-51.246-29.619-135.132-29.619-186.412,0c-15.951,9.235-26.932,20.249-32.944,31.97c-0.033,0.033-0.067,0.1-0.067,0.135
	c-1.444,2.855-2.62,5.742-3.459,8.631c-1.293,4.318-1.925,8.69-1.928,13.062h-0.005v0.124c0,0.11-0.001,0.219,0,0.33v23.359h0.005
	c-0.013,19.5,12.777,39.013,38.397,53.799c51.279,29.619,135.166,29.619,186.412,0c25.645-14.781,38.425-34.294,38.429-53.799h0.026
	v-23.813H387.635z"/>
<path style="fill:#9CDD03;" d="M349.184,465.972c-51.246,29.619-135.134,29.619-186.412,0c-31.366-18.1-43.522-43.286-36.47-66.861
	c0.84-2.888,2.015-5.776,3.459-8.63c0-0.033,0.033-0.1,0.067-0.135c6.011-11.72,16.992-22.735,32.944-31.97
	c51.279-29.619,135.166-29.619,186.412,0c15.951,9.201,26.932,20.217,32.944,31.936c0.034,0.068,0.068,0.1,0.1,0.168
	c1.511,2.955,2.687,5.943,3.56,8.933c0,0.033,0.033,0.067,0.033,0.067C392.605,422.954,380.415,447.973,349.184,465.972z"/>
<path style="fill:#FE0B37;" d="M235.11,39.257c58.652,33.863,106.052,115.952,105.861,183.358
	C340.78,290.019,239.39,405.967,234.054,412.07c-5.285-12.235-105.695-244.692-105.503-312.096
	C128.741,32.568,176.451,5.39,235.11,39.257z M234.559,233.813c36.949,21.333,67,4.207,67.12-38.25
	c0.12-42.467-29.736-94.179-66.684-115.511c-36.957-21.337-67.008-4.212-67.128,38.255
	C167.746,160.763,197.602,212.476,234.559,233.813"/>
<path style="fill:#D80029;" d="M277.589,14.571c-29.52-17.043-56.268-18.627-75.581-7.403L159.53,31.854
	c19.313-11.223,46.06-9.64,75.581,7.403c58.652,33.863,106.052,115.952,105.861,183.358
	C340.78,290.019,239.39,405.967,234.054,412.07l42.478-24.686c5.336-6.102,106.726-122.05,106.917-189.456
	C383.641,130.523,336.241,48.434,277.589,14.571z"/>
</svg>